{
  "accessors": [
    {
      "bufferView": 2,
      "componentType": 5126,
      "count": 9860,
      "max": [
        1.0,
        0.6016989946365356,
        0.2887600064277649
      ],
      "min": [
        -1.0,
        -0.6016989946365356,
        -0.2887600064277649
      ],
      "type": "VEC3"
    },
    {
      "bufferView": 2,
      "byteOffset": 118320,
      "componentType": 5126,
      "count": 9860,
      "max": [
        0.9987810254096985,
        0.9999444484710693,
        0.9999954700469971
      ],
      "min": [
        -0.9999244809150696,
        -0.999792754650116,
        -0.9998798966407776
      ],
      "type": "VEC3"
    },
    {
      "bufferView": 3,
      "componentType": 5126,
      "count": 9860,
      "max": [
        0.9994874596595764,
        0.9992285370826721,
        0.9997762441635132,
        1.0
      ],
      "min": [
        -0.9999927878379822,
        -0.9994874000549316,
        -0.9980661869049072,
        1.0
      ],
      "type": "VEC4"
    },
    {
      "bufferView": 1,
      "componentType": 5126,
      "count": 9860,
      "max": [
        0.9940029978752136,
        0.9967300295829773
      ],
      "min": [
        0.004292000085115433,
        0.0005760000203736126
      ],
      "type": "VEC2"
    },
    {
      "bufferView": 0,
      "componentType": 5125,
      "count": 56202,
      "type": "SCALAR"
    }
  ],
  "asset": {
    "extras": {
      "author": "Shadowfang22 (https://sketchfab.com/Shadowfang22)",
      "license": "CC-BY-ND-4.0 (http://creativecommons.org/licenses/by-nd/4.0/)",
      "source": "https://sketchfab.com/3d-models/hoodie-297bd8925c334e76b52888213fd0dfb1",
      "title": "Hoodie"
    },
    "generator": "Sketchfab-12.65.0",
    "version": "2.0"
  },
  "bufferViews": [
    {
      "buffer": 0,
      "byteLength": 224808,
      "name": "floatBufferViews",
      "target": 34963
    },
    {
      "buffer": 0,
      "byteLength": 78880,
      "byteOffset": 224808,
      "byteStride": 8,
      "name": "floatBufferViews",
      "target": 34962
    },
    {
      "buffer": 0,
      "byteLength": 236640,
      "byteOffset": 303688,
      "byteStride": 12,
      "name": "floatBufferViews",
      "target": 34962
    },
    {
      "buffer": 0,
      "byteLength": 157760,
      "byteOffset": 540328,
      "byteStride": 16,
      "name": "floatBufferViews",
      "target": 34962
    }
  ],
  "buffers": [
    {
      "byteLength": 698088,
      "uri": "scene.bin"
    }
  ],
  "images": [
    {
      "uri": "textures/lambert2SG_baseColor.jpeg"
    },
    {
      "uri": "textures/lambert2SG_metallicRoughness.png"
    },
    {
      "uri": "textures/lambert2SG_normal.png"
    }
  ],
  "materials": [
    {
      "doubleSided": true,
      "name": "lambert2SG",
      "normalTexture": {
        "index": 2
      },
      "occlusionTexture": {
        "index": 1
      },
      "pbrMetallicRoughness": {
        "baseColorTexture": {
          "index": 0
        },
        "metallicRoughnessTexture": {
          "index": 1
        }
      }
    }
  ],
  "meshes": [
    {
      "name": "defaultMaterial",
      "primitives": [
        {
          "attributes": {
            "NORMAL": 1,
            "POSITION": 0,
            "TANGENT": 2,
            "TEXCOORD_0": 3
          },
          "indices": 4,
          "material": 0,
          "mode": 4
        }
      ]
    }
  ],
  "nodes": [
    {
      "children": [
        1
      ],
      "matrix": [
        0.6118625402450562,
        0.0,
        0.0,
        0.0,
        0.0,
        1.3586077601713956e-16,
        -0.6118625402450562,
        0.0,
        0.0,
        0.6118625402450562,
        1.3586077601713956e-16,
        0.0,
        0.0,
        0.0,
        0.0,
        1.0
      ],
      "name": "Sketchfab_model"
    },
    {
      "children": [
        2
      ],
      "matrix": [
        1.0,
        0.0,
        0.0,
        0.0,
        0.0,
        -4.371139006309477e-08,
        0.999999999999999,
        0.0,
        0.0,
        -0.999999999999999,
        -4.371139006309477e-08,
        0.0,
        0.0,
        0.0,
        0.0,
        1.0
      ],
      "name": "Collada visual scene group"
    },
    {
      "children": [
        3
      ],
      "name": "g"
    },
    {
      "mesh": 0,
      "name": "defaultMaterial"
    }
  ],
  "samplers": [
    {
      "magFilter": 9729,
      "minFilter": 9987,
      "wrapS": 10497,
      "wrapT": 10497
    }
  ],
  "scene": 0,
  "scenes": [
    {
      "name": "Sketchfab_Scene",
      "nodes": [
        0
      ]
    }
  ],
  "textures": [
    {
      "sampler": 0,
      "source": 0
    },
    {
      "sampler": 0,
      "source": 1
    },
    {
      "sampler": 0,
      "source": 2
    }
  ]
}
